HIERARCHY
ROOT root
{
	OFFSET 0.000000 0.000000 0.000000
	CHANNELS 6 Xposition Yposition Zposition Zrotation Yrotation Xrotation
	JOINT lhip
	{
		OFFSET 0.058581 -0.082280 -0.017664
		CHANNELS 3 Zrotation Yrotation Xrotation
		JOINT lknee
		{
			OFFSET 0.043451 -0.386469 0.008037
			CHANNELS 3 Zrotation Yrotation Xrotation
			JOINT lankle
			{
				OFFSET -0.014790 -0.426874 -0.037428
				CHANNELS 3 Zrotation Yrotation Xrotation
				JOINT ltoe
				{
					OFFSET 0.041054 -0.060286 0.122042
					CHANNELS 3 Zrotation Yrotation Xrotation
					End Site
					{
						OFFSET 0.000000 0.000000 0.000000
					}
				}
			}
		}
	}
	JOINT rhip
	{
		OFFSET -0.060310 -0.090513 -0.013543
		CHANNELS 3 Zrotation Yrotation Xrotation
		JOINT rknee
		{
			OFFSET -0.043257 -0.383688 -0.004843
			CHANNELS 3 Zrotation Yrotation Xrotation
			JOINT rankle
			{
				OFFSET 0.019056 -0.420046 -0.034562
				CHANNELS 3 Zrotation Yrotation Xrotation
				JOINT rtoe
				{
					OFFSET -0.034840 -0.062106 0.130323
					CHANNELS 3 Zrotation Yrotation Xrotation
					End Site
					{
						OFFSET 0.000000 0.000000 0.000000
					}
				}
			}
		}
	}
	JOINT lowerback
	{
		OFFSET 0.004439 0.124404 -0.038385
		CHANNELS 3 Zrotation Yrotation Xrotation
		JOINT upperback
		{
			OFFSET 0.004488 0.137956 0.026820
			CHANNELS 3 Zrotation Yrotation Xrotation
			JOINT chest
			{
				OFFSET -0.002265 0.056032 0.002855
				CHANNELS 3 Zrotation Yrotation Xrotation
				JOINT lowerneck
				{
					OFFSET -0.013390 0.211636 -0.033468
					CHANNELS 3 Zrotation Yrotation Xrotation
					JOINT upperneck
					{
						OFFSET 0.010113 0.088937 0.050410
						CHANNELS 3 Zrotation Yrotation Xrotation
						End Site
						{
							OFFSET 0.000000 0.000000 0.000000
						}
					}
				}
				JOINT lclavicle
				{
					OFFSET 0.071702 0.114000 -0.018898
					CHANNELS 3 Zrotation Yrotation Xrotation
					JOINT lshoulder
					{
						OFFSET 0.122921 0.045205 -0.019046
						CHANNELS 3 Zrotation Yrotation Xrotation
						JOINT lelbow
						{
							OFFSET 0.255332 -0.015649 -0.022946
							CHANNELS 3 Zrotation Yrotation Xrotation
							JOINT lwrist
							{
								OFFSET 0.265709 0.012698 -0.007375
								CHANNELS 3 Zrotation Yrotation Xrotation
								End Site
								{
									OFFSET 0.000000 0.000000 0.000000
								}
							}
						}
					}
				}
				JOINT rclavicle
				{
					OFFSET -0.082954 0.112472 -0.023707
					CHANNELS 3 Zrotation Yrotation Xrotation
					JOINT rshoulder
					{
						OFFSET -0.113228 0.046853 -0.008472
						CHANNELS 3 Zrotation Yrotation Xrotation
						JOINT relbow
						{
							OFFSET -0.260127 -0.014369 -0.031269
							CHANNELS 3 Zrotation Yrotation Xrotation
							JOINT rwrist
							{
								OFFSET -0.269108 0.006794 -0.006027
								CHANNELS 3 Zrotation Yrotation Xrotation
								End Site
								{
									OFFSET 0.000000 0.000000 0.000000
								}
							}
						}
					}
				}
			}
		}
	}
}
MOTION
Frames: 11
Frame Time: 0.033333
-0.065456 0.235832 0.969014 97.454931 1.192301 88.238058 7.148471 -7.967018 -25.719254 -7.871857 -4.500809 40.999734 2.742406 11.556083 -16.358340 0.000000 -0.000000 0.000000 -5.174325 -0.521610 -22.062386 0.853987 -1.028084 39.317200 1.671930 -10.870915 -15.865617 0.000000 -0.000000 0.000000 -0.317361 3.622001 21.988311 5.373053 -1.902714 -1.837479 5.206428 1.292338 6.454453 15.358070 6.635206 2.966920 20.584340 -9.539645 -15.736254 13.659031 1.586007 -15.578031 -4.795379 -46.443983 -23.615132 141.354051 -42.713942 -128.714796 -7.462041 -14.297309 -5.688423 -5.961588 1.043740 -4.499325 31.826107 7.629051 -3.299419 -170.473575 54.919094 -153.049375 23.688439 14.706338 -15.930231 
-0.065974 0.235940 0.969031 97.491692 1.302463 88.279927 7.284514 -8.032900 -25.831046 -7.823183 -4.460177 41.051019 2.642728 11.404074 -16.306686 0.000000 -0.000000 0.000000 -5.114136 -0.434180 -22.112216 0.834138 -1.168821 39.294600 1.659918 -10.830378 -15.779740 0.000000 -0.000000 0.000000 -0.329314 3.561647 22.212281 5.455037 -1.918621 -2.012301 5.307395 1.291107 6.408384 15.055192 6.778241 2.990642 20.492424 -9.956979 -16.200366 14.536957 1.062029 -15.497963 -5.593076 -47.537712 -23.177314 143.094090 -42.350625 -128.718240 -6.777744 -15.089611 -6.210428 -6.513584 1.110860 -4.540766 32.514793 7.359780 -3.339312 -169.805494 54.514993 -151.675323 22.955766 15.116817 -17.014038 
-0.066333 0.235881 0.968975 97.465365 1.306600 88.318799 7.398612 -8.145991 -25.921413 -7.739183 -4.148790 41.116830 2.624655 11.192781 -16.357487 0.000000 -0.000000 0.000000 -5.195710 -0.343210 -22.210417 0.748057 -1.393333 39.418464 1.600978 -10.594038 -15.762025 0.000000 -0.000000 0.000000 -0.382811 3.535957 22.287269 5.448960 -1.904089 -1.919081 5.304102 1.291126 6.337529 14.870128 6.428285 2.579898 20.407359 -9.991428 -16.524736 14.703307 0.822701 -15.445421 -8.231588 -49.464129 -20.899960 145.247694 -41.673602 -130.620744 -7.919142 -15.349013 -7.354408 -6.816415 0.678972 -4.504284 33.067590 7.613823 -3.272175 -169.307236 54.004456 -150.959277 23.897833 15.030574 -17.251602 
-0.066929 0.235664 0.968723 97.426885 1.248880 88.391210 7.424877 -8.215674 -26.076329 -7.584923 -3.811642 41.232608 2.601734 10.883208 -16.523660 0.000000 -0.000000 0.000000 -5.301703 -0.364616 -22.405796 0.674022 -1.564821 39.652791 1.431768 -10.384392 -15.795512 0.000000 -0.000000 0.000000 -0.259757 3.406246 22.436006 5.234441 -1.979363 -1.582352 5.000578 1.189309 6.015458 14.671458 5.946487 1.883675 20.319952 -9.781319 -16.762776 14.028964 0.638792 -15.396058 -11.286824 -51.400852 -18.239290 147.739060 -40.799131 -132.691277 -9.838743 -14.627787 -7.579629 -6.881783 0.233958 -4.513703 33.711026 8.089480 -2.944085 -168.004752 53.286620 -150.016664 24.749976 14.993450 -18.221255 
-0.067439 0.235385 0.967950 97.368192 1.176130 88.467882 7.487615 -8.227335 -26.311023 -7.529814 -3.455413 41.464620 2.562631 10.664237 -16.758370 0.000000 -0.000000 0.000000 -5.392926 -0.390841 -22.673291 0.607103 -1.637211 39.934348 1.290122 -10.203520 -15.968650 0.000000 -0.000000 0.000000 -0.222393 3.312675 22.630319 4.940912 -2.066717 -1.225782 4.802551 1.155565 5.718028 14.480143 5.301387 1.054631 20.196889 -9.463466 -16.936926 12.687958 0.119257 -15.491843 -14.749238 -52.974775 -15.317157 150.295385 -40.053254 -134.040760 -10.406260 -14.414656 -7.271994 -6.968973 -0.112073 -4.441466 34.294871 8.219091 -3.008100 -167.411525 52.463092 -149.133214 24.811079 14.819708 -18.328915 
-0.067879 0.234594 0.967097 97.271782 1.160442 88.496476 7.643185 -8.143088 -26.481400 -7.492891 -3.114101 41.690063 2.472259 10.372690 -17.009763 0.000000 -0.000000 0.000000 -5.352923 -0.327289 -22.926804 0.441063 -1.742989 40.342774 1.164124 -9.994362 -16.194350 0.000000 -0.000000 0.000000 -0.277593 3.214302 22.969901 4.582339 -2.117960 -0.800786 4.619949 1.200088 5.345144 14.559949 4.824013 0.245645 20.010771 -9.484335 -17.100244 11.685391 -0.378153 -15.418407 -18.411999 -54.353980 -12.535962 151.791625 -39.184737 -133.886938 -10.971644 -14.091788 -5.702880 -7.028251 -0.414253 -4.031062 34.825710 8.222356 -3.371099 -166.314830 51.400271 -147.420873 25.078150 14.682276 -18.490312 
-0.068651 0.233625 0.966091 97.316257 1.149418 88.498748 7.782272 -8.202985 -26.707808 -7.547286 -2.902406 41.948708 2.397130 10.217642 -17.123586 0.000000 -0.000000 0.000000 -5.375439 -0.268140 -23.171017 0.357581 -1.974601 40.748787 0.968324 -9.878290 -16.288288 0.000000 -0.000000 0.000000 -0.323641 3.019222 23.420238 4.234681 -2.287018 -0.588544 4.331995 1.060295 5.287139 14.351138 4.479453 -0.363446 19.842578 -9.233060 -17.342931 11.055953 -0.622766 -15.073990 -21.742653 -54.928326 -10.151904 152.874932 -38.521903 -133.403393 -11.528663 -14.123585 -5.636749 -7.110451 -0.891660 -3.908984 35.442914 8.543323 -3.705735 -165.486228 50.480650 -145.530917 24.640626 14.172954 -18.202568 
-0.069071 0.232355 0.965487 97.283266 1.194135 88.513097 7.943690 -8.149368 -26.859094 -7.498337 -2.775654 42.122135 2.402066 10.061537 -17.131062 0.000000 -0.000000 0.000000 -5.274408 -0.229617 -23.370882 0.311363 -2.119565 41.050212 0.858814 -9.791797 -16.453064 0.000000 -0.000000 0.000000 -0.413517 2.908561 23.870596 3.920434 -2.370948 -0.291369 4.080484 0.932112 5.223265 13.800974 4.201792 -0.688547 19.658035 -8.791028 -17.796872 10.224720 -0.493013 -14.620108 -24.177791 -54.858148 -8.205802 153.803998 -38.493584 -133.820584 -11.772236 -14.088887 -5.259352 -6.999361 -1.642658 -3.785478 35.839799 8.586287 -4.316596 -164.676877 49.240328 -144.436616 24.308876 14.298265 -18.231985 
-0.069599 0.231012 0.965095 97.297165 1.188868 88.544891 8.041428 -8.131221 -27.000518 -7.434767 -2.714169 42.194789 2.367427 9.909359 -17.131174 0.000000 -0.000000 0.000000 -5.222781 -0.230472 -23.595958 0.317021 -2.205116 41.334173 0.783734 -9.720350 -16.600893 0.000000 -0.000000 0.000000 -0.662545 2.820014 24.309460 3.662084 -2.448119 -0.278932 3.928136 0.794791 5.679470 13.066012 3.996817 -0.816365 19.370929 -8.441763 -18.407816 9.533444 -0.172175 -14.228732 -26.982682 -53.991959 -5.962377 154.625210 -38.663335 -134.254245 -12.349714 -14.426676 -5.898030 -6.738438 -2.624571 -4.000069 36.021463 8.710579 -4.954981 -163.940211 47.814537 -143.546530 23.999924 14.151287 -18.348043 
-0.070217 0.229462 0.964925 97.242540 1.202144 88.649163 8.213401 -8.155448 -27.224000 -7.297917 -2.510808 42.291137 2.368589 9.782440 -17.113198 0.000000 -0.000000 0.000000 -5.218937 -0.159056 -23.891116 0.276485 -2.465577 41.595909 0.756498 -9.515649 -16.647113 0.000000 -0.000000 0.000000 -0.897583 2.687395 24.801168 3.345493 -2.493422 -0.142937 3.702359 0.785650 6.019302 12.231016 4.062977 -1.025402 19.026456 -8.024309 -19.330406 9.093842 0.289826 -13.502790 -29.342024 -52.070341 -3.747742 155.713989 -39.186610 -135.344665 -13.492720 -15.191561 -6.992293 -6.481855 -3.229554 -3.992894 36.091654 8.212913 -5.929932 -163.092439 45.681103 -142.893110 25.105804 14.735297 -18.420497 
-0.070994 0.227770 0.964553 97.257468 1.204703 88.835579 8.296684 -8.185343 -27.588370 -7.309561 -2.675839 42.444636 2.443896 9.989952 -17.072635 0.000000 -0.000000 0.000000 -5.198584 -0.235620 -24.289870 0.386315 -2.526349 41.825344 0.765447 -9.533274 -16.670656 0.000000 -0.000000 0.000000 -1.026310 2.592251 25.372888 2.950808 -2.529716 -0.071946 3.266100 0.747332 6.254207 11.336817 3.572556 -1.426741 18.731500 -7.031487 -19.862493 8.221741 1.256653 -12.343279 -30.973286 -50.026884 -1.916493 156.864231 -40.666063 -136.852508 -11.592140 -15.639348 -9.248263 -6.175369 -4.589001 -3.642330 35.992558 8.679232 -7.115340 -163.317107 44.299603 -142.600333 21.540289 13.918255 -18.187733 
